<?xml version="1.0" encoding="UTF-8"?>
<svg version="1.1" xmlns="http://www.w3.org/2000/svg" width="2000" height="2000">
<path d="M0 0 C660 0 1320 0 2000 0 C2000 660 2000 1320 2000 2000 C1340 2000 680 2000 0 2000 C0 1340 0 680 0 0 Z " fill="#000000" transform="translate(0,0)"/>
<path d="M0 0 C275 0 275 0 300 2 C305.445 2.4021875 305.445 2.4021875 311 2.8125 C335.59896801 4.85585863 359.9975501 9.35029482 384 15 C384.86157715 15.20061035 385.7231543 15.4012207 386.61083984 15.60791016 C453.14574713 31.34516807 518.99907764 66.85030946 561 122 C561.98695842 123.24844274 562.97535497 124.49574932 563.96484375 125.7421875 C592.22373257 161.63907463 614.38748741 204.58149776 625.48046875 249.00634766 C626.16419913 251.63009875 626.97053586 254.21455111 627.76049805 256.80786133 C634.14953046 278.30008916 637.78090101 300.88679304 640.375 323.125 C640.45444855 323.79917969 640.53389709 324.47335937 640.61575317 325.16796875 C642.494668 341.3969305 643.16111609 357.64083576 643.203125 373.96875 C643.20595238 374.73724777 643.20877975 375.50574554 643.21169281 376.29753113 C643.2265225 380.37625443 643.23584997 384.45494393 643.24023438 388.53369141 C643.24458323 391.81603325 643.25835872 395.09810693 643.28125 398.38037109 C643.48403144 428.13146457 642.08815695 457.4777884 636.75 486.8125 C636.52407166 488.08708572 636.52407166 488.08708572 636.2935791 489.38742065 C620.80936273 576.65209771 579.65488632 659.63473438 500.66796875 718.0859375 C492.56667657 723.67592945 484.2562387 728.57501917 475.5625 733.1875 C467.5159704 737.46254087 460.74387904 741.83447952 454 748 C431.6295171 767.4566805 405.20287278 782.08394646 377.04248047 791.32519531 C375.10619502 791.96491477 373.17967752 792.63398092 371.25390625 793.3046875 C323.12586563 809.43083638 265.7897373 810.5332184 216 803 C215.03674805 802.86609863 214.07349609 802.73219727 213.08105469 802.59423828 C201.09288502 800.91165237 189.39355276 798.24249831 177.6875 795.1875 C176.49648682 794.88046143 175.30547363 794.57342285 174.07836914 794.25708008 C163.9501314 791.51928756 154.94053974 787.86576545 145 784 C73.225 783.505 73.225 783.505 0 783 C0 524.61 0 266.22 0 0 Z " fill="#FEFEFE" transform="translate(785,585)"/>
<path d="M0 0 C1.00804687 0.27585937 2.01609375 0.55171875 3.0546875 0.8359375 C23.47813215 6.67834098 41.41027501 16.61917129 57 31 C57.95777344 31.87527344 58.91554688 32.75054688 59.90234375 33.65234375 C80.23451523 53.0719914 96.14076717 83.55558667 97 112 C97.01247612 114.09632068 97.01602043 116.19270911 97.01171875 118.2890625 C97.01002686 119.3610791 97.00833496 120.4330957 97.0065918 121.53759766 C97.0044165 122.35019043 97.00224121 123.1627832 97 124 C98.65440094 123.98120789 98.65440094 123.98120789 100.34222412 123.96203613 C110.87024535 123.8426585 121.39828444 123.7249774 131.92634201 123.60884857 C137.33550711 123.54913165 142.74466486 123.48887017 148.15380859 123.42724609 C171.43631125 123.1623763 194.71565036 122.89762352 218 123 C245.19481663 211.20834473 250.50322555 316.51595262 218.1875 418.75 C217.94489441 419.45638611 217.70228882 420.16277222 217.45233154 420.89056396 C213.39992349 432.60007651 213.39992349 432.60007651 211 435 C210.85304688 434.14921875 210.70609375 433.2984375 210.5546875 432.421875 C207.47689252 415.79470672 202.75507755 400.04996369 195 385 C194.44441406 383.89269531 193.88882812 382.78539062 193.31640625 381.64453125 C186.9669532 369.3708772 178.95777713 358.49339606 170 348 C169.319375 347.195625 168.63875 346.39125 167.9375 345.5625 C163.62289451 340.57373741 159.05566193 336.22338133 154 332 C153.15050781 331.25105469 152.30101562 330.50210937 151.42578125 329.73046875 C109.07780821 293.04429838 50.63421477 273.27728391 -1.70797348 256.08798599 C-4.92802804 255.02977908 -8.14623991 253.9661215 -11.36404419 252.90109253 C-20.49257754 249.88021591 -29.62285043 246.86468667 -38.75732422 243.86181641 C-101.12228288 223.34999827 -101.12228288 223.34999827 -123.3125 211.4375 C-124.33754639 210.89432129 -125.36259277 210.35114258 -126.41870117 209.79150391 C-139.37657069 202.7997369 -150.5211001 194.31493419 -161 184 C-162.22009766 182.81664062 -162.22009766 182.81664062 -163.46484375 181.609375 C-181.18877444 163.30979528 -185.22681699 138.43898459 -185.25 114 C-185.25100708 113.26422729 -185.25201416 112.52845459 -185.25305176 111.77038574 C-185.24297474 100.8925466 -184.78481156 90.57263956 -182 80 C-181.73316406 78.90042969 -181.46632813 77.80085937 -181.19140625 76.66796875 C-173.97308537 50.13662932 -155.49673117 28.15079136 -132.02832031 14.33764648 C-94.043257 -7.20154866 -42.05614785 -12.53484072 0 0 Z " fill="#000000" transform="translate(1092,706)"/>
<path d="M0 0 C11.23783643 7.15135045 11.23783643 7.15135045 16.53442383 10.76342773 C67.57846558 45.05684483 130.90237478 62.37359015 189.07543945 80.10229492 C230.20181252 92.72619289 273.09826686 107.92441745 304 139 C304.81984375 139.81984375 305.6396875 140.6396875 306.484375 141.484375 C327.39916973 163.55308943 335.66776186 192.21540115 335.5 222 C335.49790527 222.85483978 335.49581055 223.70967957 335.49365234 224.59042358 C335.39187415 244.78137889 332.42965076 263.00464298 323.00439453 281.07080078 C322.07399264 282.85787802 321.20408657 284.67610004 320.33984375 286.49609375 C314.85427895 296.50506279 306.21251989 299.32006408 296 303 C294.35008597 303.62193325 292.70034637 304.24432942 291.05078125 304.8671875 C274.63554493 310.93901823 257.98377758 314.93666336 240.8125 318.1875 C240.14730347 318.31424103 239.48210693 318.44098206 238.79675293 318.57156372 C202.47644318 325.44089819 165.62236829 326.64683782 128.75585938 326.77563477 C123.17232268 326.7980147 117.59129031 326.88132163 112.00859261 326.97675037 C107.63650267 327.04033466 103.26502606 327.05894023 98.89251328 327.065588 C96.83293876 327.07639161 94.77337223 327.10369124 92.71426773 327.14899635 C78.68091593 327.43806604 70.41012632 325.59895128 60 316 C59.00815704 315.14400711 58.01631409 314.28801422 56.99441528 313.40608215 C52.81949951 309.78359467 48.85578806 305.95999855 45 302 C44.23139648 301.26209229 44.23139648 301.26209229 43.44726562 300.50927734 C21.91259161 279.66200959 10.15842752 249.98000548 5 221 C4.66162109 219.25783203 4.66162109 219.25783203 4.31640625 217.48046875 C2.79397878 208.9653744 2.80094453 200.61467833 3 192 C2.01 192 1.02 192 0 192 C0 128.64 0 65.28 0 0 Z " fill="#000000" transform="translate(879,964)"/>
<path d="M0 0 C8.88320599 8.3599578 15.49462326 17.70061801 20.25 28.9375 C20.5289209 29.59322998 20.8078418 30.24895996 21.09521484 30.92456055 C25.18986205 41.37142343 25.59266942 52.27868886 25.5625 63.375 C25.57861328 64.56416016 25.59472656 65.75332031 25.61132812 66.97851562 C25.61550178 74.57874008 24.67530821 81.11516322 22.25 88.3125 C21.92938599 89.3192981 21.92938599 89.3192981 21.60229492 90.34643555 C14.84215859 110.74663754 0.1102708 127.1805994 -18.75 137.3125 C-22.68476205 139.19035027 -26.64586284 140.84420955 -30.75 142.3125 C-31.6265625 142.64378906 -32.503125 142.97507812 -33.40625 143.31640625 C-41.86764914 145.83703333 -50.19807575 146.67672311 -59 146.625 C-60.00144043 146.62008545 -61.00288086 146.6151709 -62.03466797 146.61010742 C-83.89328562 146.26730298 -102.29572607 138.5168485 -118.75 124.3125 C-119.43964844 123.71953125 -120.12929688 123.1265625 -120.83984375 122.515625 C-134.72091464 109.65158307 -144.0301015 89.65739558 -144.85986328 70.81811523 C-145.42156025 45.27506376 -141.00192559 24.04354088 -123.75 4.3125 C-122.95335937 3.39017578 -122.95335937 3.39017578 -122.140625 2.44921875 C-90.11937314 -32.02910937 -33.69159602 -30.16751546 0 0 Z " fill="#FEFEFE" transform="translate(705.75,560.6875)"/>
<path d="M0 0 C8.60530993 8.30389802 15.86299637 18.73264242 22 29 C22 29.66 22 30.32 22 31 C18.04 31 14.08 31 10 31 C9.61328125 29.576875 9.2265625 28.15375 8.828125 26.6875 C8.30251431 24.79154714 7.7764484 22.89572043 7.25 21 C6.99734375 20.06542969 6.7446875 19.13085938 6.484375 18.16796875 C4.86142365 12.36591767 2.78837236 7.33427757 0 2 C0 1.34 0 0.68 0 0 Z " fill="#0C0C0C" transform="translate(1266,751)"/>
<path d="M0 0 C6.93 0 13.86 0 21 0 C17.34848708 2.92121033 13.68150186 5.76514842 9.9375 8.5625 C8.91527344 9.32691406 7.89304687 10.09132813 6.83984375 10.87890625 C5.90269531 11.57886719 4.96554687 12.27882813 4 13 C2.68 13.99 1.36 14.98 0 16 C0 10.72 0 5.44 0 0 Z " fill="#111111" transform="translate(879,663)"/>
</svg>
